<svg width="24px" height="24px" viewBox="0 0 24 24" version="1.1" xmlns="http://www.w3.org/2000/svg" xmlns:xlink="http://www.w3.org/1999/xlink">
    <!-- Generator: Sketch 49.2 (51160) - http://www.bohemiancoding.com/sketch -->
    <title>icon/ic-circle-menu-active</title>
    <desc>Created with Sketch.</desc>
    <defs>
        <path d="M12,22 C17.5228475,22 22,17.5228475 22,12 C22,6.4771525 17.5228475,2 12,2 C6.4771525,2 2,6.4771525 2,12 C2,17.5228475 6.4771525,22 12,22 Z M12,23 C5.92486775,23 1,18.0751322 1,12 C1,5.92486775 5.92486775,1 12,1 C18.0751322,1 23,5.92486775 23,12 C23,18.0751322 18.0751322,23 12,23 Z M6.39285714,8 L16.6071429,8 C16.8243929,8 17,7.776 17,7.5 C17,7.224 16.8243929,7 16.6071429,7 L6.39285714,7 C6.17560714,7 6,7.224 6,7.5 C6,7.776 6.17560714,8 6.39285714,8 Z M18.6111111,13 L5.38888889,13 C5.17383333,13 5,13.224 5,13.5 C5,13.776 5.17383333,14 5.38888889,14 L18.6111111,14 C18.8261667,14 19,13.776 19,13.5 C19,13.224 18.8261667,13 18.6111111,13 Z M18.6111111,10 L5.38888889,10 C5.17383333,10 5,10.224 5,10.5 C5,10.776 5.17383333,11 5.38888889,11 L18.6111111,11 C18.8261667,11 19,10.776 19,10.5 C19,10.224 18.8261667,10 18.6111111,10 Z M16.6071429,16 L6.39285714,16 C6.17560714,16 6,16.224 6,16.5 C6,16.776 6.17560714,17 6.39285714,17 L16.6071429,17 C16.8243929,17 17,16.776 17,16.5 C17,16.224 16.8243929,16 16.6071429,16 Z" id="path-1"></path>
    </defs>
    <g id="icon/ic-circle-menu-active" stroke="none" stroke-width="1" fill="none" fill-rule="evenodd">
        <g id="-g-ic-circle-menu-active">
            <rect id="bound" x="0" y="0" width="24" height="24"></rect>
            <mask id="mask-2" fill="white">
                <use xlink:href="#path-1"></use>
            </mask>
            <use id="Combined-Shape" fill="#F08262" fill-rule="nonzero" xlink:href="#path-1"></use>
        </g>
    </g>
</svg>