<?xml version="1.0" encoding="utf-8"?>
<svg xmlns="http://www.w3.org/2000/svg" xmlns:xlink="http://www.w3.org/1999/xlink" width="24px" height="24px" viewBox="0 0 24 24" version="1.1">
    
    <title>Assets/Icon/Action/Circle Pause</title>
    <desc>Created with Sketch.</desc>
    <g id="Assets/Icon/Action/Circle-Pause" stroke="none" stroke-width="1" fill="none" fill-rule="evenodd">
        <g id="-g-ic-circle-pause">
            <rect id="Bound" x="0" y="0" width="24" height="24"/>
            <path d="M13.1,17.8666667 L13.1,6.13333333 L16.0333333,6.13333333 L16.0333333,17.8666667 L13.1,17.8666667 Z M7.96666667,17.8666667 L7.96666667,6.13333333 L10.9,6.13333333 L10.9,17.8666667 L7.96666667,17.8666667 Z M12,22 C17.5228475,22 22,17.5228475 22,12 C22,6.4771525 17.5228475,2 12,2 C6.4771525,2 2,6.4771525 2,12 C2,17.5228475 6.4771525,22 12,22 Z M12,23 C5.92486775,23 1,18.0751322 1,12 C1,5.92486775 5.92486775,1 12,1 C18.0751322,1 23,5.92486775 23,12 C23,18.0751322 18.0751322,23 12,23 Z" id="Color" fill="#789CA8"/>
        </g>
    </g>
</svg>
