<?xml version="1.0" encoding="utf-8"?>
<svg xmlns="http://www.w3.org/2000/svg" xmlns:xlink="http://www.w3.org/1999/xlink" width="24px" height="24px" viewBox="0 0 24 24" version="1.1">
    
    <title>icon/ic-circle-close</title>
    <desc>Created with Sketch.</desc>
    <defs>
        <path d="M12,22 C17.5228475,22 22,17.5228475 22,12 C22,6.4771525 17.5228475,2 12,2 C6.4771525,2 2,6.4771525 2,12 C2,17.5228475 6.4771525,22 12,22 Z M12,11.2928932 L9.87867966,9.17157288 L9.17157288,9.87867966 L11.2928932,12 L9.17157288,14.1213203 L9.87867966,14.8284271 L12,12.7071068 L14.1213203,14.8284271 L14.8284271,14.1213203 L12.7071068,12 L14.8284271,9.87867966 L14.1213203,9.17157288 L12,11.2928932 Z M12,23 C5.92486775,23 1,18.0751322 1,12 C1,5.92486775 5.92486775,1 12,1 C18.0751322,1 23,5.92486775 23,12 C23,18.0751322 18.0751322,23 12,23 Z" id="path-1"/>
    </defs>
    <g id="icon/ic-circle-close" stroke="none" stroke-width="1" fill="none" fill-rule="evenodd">
        <g id="-g-ic-circle-close">
            <rect id="bound" x="0" y="0" width="24" height="24"/>
            <mask id="mask-2" fill="white">
                <use xlink:href="#path-1"/>
            </mask>
            <use id="Icon" fill="#789CA8" fill-rule="nonzero" xlink:href="#path-1"/>
        </g>
    </g>
</svg>
