<?xml version="1.0" encoding="UTF-8"?>
<svg width="24px" height="24px" viewBox="0 0 24 24" version="1.1" xmlns="http://www.w3.org/2000/svg" xmlns:xlink="http://www.w3.org/1999/xlink">
    <!-- Generator: Sketch 51 (57462) - http://www.bohemiancoding.com/sketch -->
    <title>Icon/Circle Global</title>
    <desc>Created with Sketch.</desc>
    <defs></defs>
    <g id="Icon/Circle-Global" stroke="none" stroke-width="1" fill="none" fill-rule="evenodd">
        <g id="-g-ic-circle-menu">
            <rect id="bound" x="0" y="0" width="24" height="24"></rect>
        </g>
        <g id="internet" transform="translate(1.000000, 1.000000)" fill="#789CA8" fill-rule="nonzero" stroke="#789CA8" stroke-width="0.1">
            <path d="M19.2696062,18.3178332 C19.2683624,18.3210346 19.267116,18.3228293 19.2627749,18.3290798 C19.2482408,18.3456945 19.2482408,18.3456945 19.2400539,18.3508583 C19.2400092,18.3508882 19.2399869,18.3509032 19.2399648,18.350918 C17.2419842,20.5886223 14.4243946,21.9356631 11.4158036,22.0254933 L11.3814006,22.0404995 L11.1682286,22.0461776 C11.0848719,22.0490347 11.0472253,22.05 11,22.05 C10.9574614,22.0497583 10.9574614,22.0497583 10.9153575,22.0488478 C10.8873839,22.048137 10.8873839,22.048137 10.8595353,22.0473458 C10.8456291,22.0469509 10.8456291,22.0469509 10.8317718,22.0465685 L10.5841964,22.0262519 L10.6174611,22.0404879 C7.57855184,21.9364157 4.76353137,20.5918892 2.76379674,18.3563268 C2.76424643,18.3567511 2.76424643,18.3567511 2.75992035,18.3531592 C2.75981456,18.3530739 2.75981456,18.3530739 2.75970789,18.3529878 C2.75086501,18.3460058 2.75086501,18.3460058 2.73898066,18.3324212 C2.73354864,18.3237394 2.73167369,18.3207427 2.73042194,18.317865 C0.950617373,16.3089705 -0.05,13.7296718 -0.05,11 C-0.05,8.15809108 1.03489966,5.4814722 2.94963503,3.4431875 C2.95321636,3.4382881 2.9545845,3.43695845 2.95720935,3.43505601 C4.94536552,1.32274139 7.67747321,0.0605704989 10.5841964,-0.0254932701 L10.6185994,-0.0404995046 L10.8317714,-0.0461776016 C10.9151281,-0.049034702 10.9527747,-0.05 11,-0.05 C11.0472253,-0.05 11.0848719,-0.049034702 11.1682286,-0.0461776016 L11.1678442,-0.0461892851 L11.4161829,-0.0258725804 L11.3829178,-0.0401086494 C14.3230483,0.0605578512 17.0549735,1.32254754 19.0495397,3.44309363 C19.0518734,3.44767519 19.0553415,3.45578377 19.0621062,3.47174656 C19.0604272,3.46752688 19.0573118,3.45967143 19.0515312,3.44509445 C19.0503204,3.44351246 19.049321,3.44220767 19.0484835,3.44112238 C19.0488118,3.44169883 19.0491608,3.44234974 19.0495397,3.44309363 C19.0503641,3.4439701 19.0511884,3.44484672 19.0520126,3.44572349 C19.0518485,3.44550907 19.051688,3.44529943 19.0515312,3.44509445 C19.0512005,3.44426059 19.0508611,3.44340474 19.0505127,3.44252632 C20.9647371,5.48041368 22.05,8.15762176 22.05,11 C22.05,13.7296574 21.0493932,16.3089433 19.2696062,18.3178332 Z M19.0484835,3.44112238 C19.0462829,3.43827077 19.0451996,3.43693458 19.0443342,3.43606739 C19.0458866,3.43738157 19.0469639,3.43845457 19.0484835,3.44112238 Z M19.0443342,3.43606739 C19.0438784,3.43561075 19.0434831,3.43528415 19.0430168,3.43493481 C19.0427174,3.43474552 19.0430224,3.43499035 19.0436322,3.43548001 C19.0438779,3.43568443 19.0441109,3.4358784 19.0443342,3.43606739 Z M19.0430168,3.43493481 C19.0427902,3.43476503 19.0425468,3.43458988 19.0422716,3.43439182 C19.0423421,3.43444626 19.0423773,3.43447348 19.0425473,3.4346095 Z M18.964069,3.47669935 C18.964069,3.47667565 18.964069,3.47664009 18.964069,3.47656897 C18.964069,3.47655442 18.964069,3.47654137 18.9640779,3.47655923 Z M0.82010392,11.4293103 C0.914901147,13.6987421 1.75796519,15.8349105 3.1324167,17.5388493 C4.09822552,16.8861323 5.13270631,16.359722 6.19029135,16.0311859 C5.62510491,14.5515017 5.31369296,12.9828228 5.32096552,11.4293103 L0.82010392,11.4293103 Z M3.37631746,4.24642563 C1.81848529,6.00238569 0.905299678,8.23908032 0.768103448,10.5706897 L5.2709834,10.6193524 C5.31729529,8.88835077 5.67195109,7.20234056 6.34753699,5.70080855 C5.30345859,5.33502212 4.30796744,4.84825329 3.37631746,4.24642563 Z M21.1798953,10.5706897 C21.0805202,8.19250142 20.1594989,5.96257945 18.6597417,4.22305395 C17.7177339,4.83566186 16.7100235,5.33029874 15.6821614,5.63457471 C16.3280489,7.20234056 16.6827047,8.88835077 16.6790345,10.5706897 L21.1798953,10.5706897 Z M10.5716105,5.62411415 L10.6535597,1.04057356 C9.30789859,2.21455209 8.22305829,3.63021461 7.42106968,5.14082754 C8.44245592,5.42765008 9.49785583,5.58964432 10.5716105,5.62411414 Z M10.5706897,6.48284045 C9.37715204,6.44690779 8.20641566,6.26347662 7.13697375,5.90804231 C6.51753545,7.39302314 6.1758156,8.9872064 6.07958621,10.5706897 L10.5706897,10.6206897 L10.5706897,6.48284045 Z M11.4287227,6.48285841 L11.3793103,10.5706897 L15.8708131,10.6221035 C15.8245637,8.9872064 15.4828439,7.39302314 14.9234775,5.93681469 C13.7951797,6.26400981 12.6235008,6.44695219 11.4287227,6.4828584 Z M11.4293103,5.62408482 C12.5027399,5.58956897 13.5573424,5.42866863 14.5475043,5.21087541 C13.7769417,3.63021461 12.6921014,2.21455209 11.4293103,1.00289655 L11.4293103,5.62408482 Z M15.353343,4.89647011 C16.3028958,4.56516175 17.2118307,4.12633297 18.0599557,3.66034278 C16.4962006,2.1559318 14.4967949,1.18164678 12.3700298,0.81230591 C13.6138535,1.9965949 14.6225758,3.37805311 15.353343,4.89647011 Z M6.64665714,4.89646993 C7.37751833,3.37787069 8.38666428,1.99719867 9.67131264,0.898094898 C7.50339543,1.1816715 5.50364015,2.15607922 3.93255612,3.58209786 C4.78792282,4.12510529 5.69694328,4.56508962 6.64665714,4.89646993 Z M6.13111005,11.4293103 C6.17874045,12.920634 6.47312923,14.3788153 6.94176553,15.7234654 C8.12639907,15.3670101 9.35971026,15.1703648 10.5706897,15.1868276 L10.6206897,11.4293103 L6.13111005,11.4293103 Z M10.5706897,15.9969804 C9.44048809,16.0332334 8.33303411,16.2091604 7.29643423,16.4562146 C8.07401199,18.1711463 9.21421578,19.7036608 10.5706897,20.9971034 L10.5706897,15.9969804 Z M11.4293103,20.8865278 C12.8297001,19.6444717 13.9416309,18.1392971 14.7349834,16.5244476 C13.6498736,16.2050082 12.5244697,16.0274976 11.4293103,15.9454483 L11.4293103,20.8865278 Z M11.4293103,15.138222 C12.6724569,15.1754753 13.8884594,15.372108 14.9967889,15.7537547 C15.5321744,14.3635775 15.8279935,12.8873418 15.9204138,11.4293103 L11.4293103,11.3793103 L11.4293103,15.138222 Z M16.7276365,11.4293103 C16.6799537,13.0153861 16.3689522,14.5666101 15.7800115,15.9663277 C16.8672937,16.359722 17.9017745,16.8861323 18.8013184,17.5480955 C20.2525982,15.8222807 21.0978853,13.666593 21.2318966,11.4293103 L16.7276365,11.4293103 Z M3.75407891,18.1567318 C5.34072114,19.7628221 7.41348996,20.8072737 9.62996936,21.1876933 C8.29213925,19.9138398 7.22607933,18.4037408 6.54406849,16.7613691 C5.56533572,17.1127758 4.63090433,17.5798532 3.75407891,18.1567318 Z M12.4810738,21.0808419 C14.6992478,20.756381 16.7319724,19.7094665 18.2964416,18.1901339 C17.4041996,17.5975677 16.4529853,17.1193538 15.5184918,16.7346765 C14.7946426,18.3576617 13.7669437,19.8300514 12.4810738,21.0808419 Z" id="Shape"></path>
        </g>
    </g>
</svg>