<?xml version="1.0" encoding="UTF-8"?>
<svg width="24px" height="24px" viewBox="0 0 24 24" version="1.1" xmlns="http://www.w3.org/2000/svg" xmlns:xlink="http://www.w3.org/1999/xlink">
    <!-- Generator: Sketch 52.5 (67469) - http://www.bohemiancoding.com/sketch -->
    <title>_/Icon/Circle Info</title>
    <desc>Created with Sketch.</desc>
    <g id="_/Icon/Circle-Info" stroke="none" stroke-width="1" fill="none" fill-rule="evenodd">
        <rect id="Bound" x="0" y="0" width="24" height="24"></rect>
        <path d="M12,22 C17.5228475,22 22,17.5228475 22,12 C22,6.4771525 17.5228475,2 12,2 C6.4771525,2 2,6.4771525 2,12 C2,17.5228475 6.4771525,22 12,22 Z M12,23 C5.92486775,23 1,18.0751322 1,12 C1,5.92486775 5.92486775,1 12,1 C18.0751322,1 23,5.92486775 23,12 C23,18.0751322 18.0751322,23 12,23 Z M12.5999997,17.9999997 L11.3999996,17.9999997 L11.3999996,9.66666667 L12.5999997,9.66666667 L12.5999997,17.9999997 Z M11.8,7 L12.2,7 C12.4209139,7 12.6,7.1790861 12.6,7.4 L12.6,7.8 C12.6,8.0209139 12.4209139,8.2 12.2,8.2 L11.8,8.2 C11.5790861,8.2 11.4,8.0209139 11.4,7.8 L11.4,7.4 C11.4,7.1790861 11.5790861,7 11.8,7 Z" id="↳-Color" fill="#F08262"></path>
    </g>
</svg>