<?xml version="1.0" encoding="UTF-8"?>
<svg width="24px" height="24px" viewBox="0 0 24 24" version="1.1" xmlns="http://www.w3.org/2000/svg" xmlns:xlink="http://www.w3.org/1999/xlink">
    <!-- Generator: Sketch 49.2 (51160) - http://www.bohemiancoding.com/sketch -->
    <title>icon/ic-circle-view</title>
    <desc>Created with Sketch.</desc>
    <defs>
        <path d="M12,22.0243306 C17.5228475,22.0243306 22,17.5471781 22,12.0243306 C22,6.50148308 17.5228475,2.02433058 12,2.02433058 C6.4771525,2.02433058 2,6.50148308 2,12.0243306 C2,17.5471781 6.4771525,22.0243306 12,22.0243306 Z M12,23.0243306 C5.92486775,23.0243306 1,18.0994628 1,12.0243306 C1,5.94919833 5.92486775,1.02433058 12,1.02433058 C18.0751322,1.02433058 23,5.94919833 23,12.0243306 C23,18.0994628 18.0751322,23.0243306 12,23.0243306 Z M11.9848307,15.9769917 C13.5557698,15.9769917 15.2464515,15.334314 16.8740858,14.1184793 C18.0908849,13.2095868 18.84186,12.3090579 18.8732415,12.2711736 C19.0018014,12.1158678 19.0018014,11.8853884 18.8732415,11.7301157 C18.84186,11.6921983 18.0908533,10.7917025 16.8740858,9.88280992 C15.2464515,8.66700826 13.5557381,8.02433058 11.9848307,8.02433058 C10.4139549,8.02433058 8.72327314,8.66704132 7.09557562,9.88280992 C5.87877652,10.7917025 5.12780135,11.6922314 5.09641986,11.7301157 C4.96786005,11.8854215 4.96786005,12.1159008 5.09641986,12.2711736 C5.12780135,12.309124 5.87880813,13.2095868 7.09557562,14.1184793 C8.72324153,15.3343471 10.4139233,15.9769917 11.9848307,15.9769917 Z M5.93664108,12.0006942 C6.24040632,11.6766612 6.81361625,11.1070413 7.57031151,10.5438017 C8.60782844,9.77150413 10.2159007,8.85084298 11.9848307,8.85084298 C13.7537607,8.85084298 15.3618646,9.77150413 16.3993499,10.5438017 C17.15614,11.1071405 17.7293499,11.6767603 18.0330203,12.0006942 C17.7292551,12.3246612 17.1560451,12.8943471 16.3993499,13.4575868 C15.3618646,14.2298512 13.7537607,15.1505455 11.9848307,15.1505455 C10.2159007,15.1505455 8.60782844,14.2298512 7.57031151,13.4575868 C6.81352144,12.8942479 6.24034312,12.3246281 5.93664108,12.0006942 Z M11.9848307,13.4257355 C12.736065,13.4257355 13.3471445,12.786462 13.3471445,12.0006942 C13.3471445,11.2149264 12.736065,10.5756529 11.9848307,10.5756529 C11.2336509,10.5756529 10.6225169,11.2149264 10.6225169,12.0006942 C10.6225169,12.786462 11.2336509,13.4257355 11.9848307,13.4257355 Z" id="path-1"></path>
    </defs>
    <g id="icon/ic-circle-view" stroke="none" stroke-width="1" fill="none" fill-rule="evenodd">
        <g id="-g-ic-circle-view">
            <rect id="bound" x="0" y="0" width="24" height="24"></rect>
            <mask id="mask-2" fill="white">
                <use xlink:href="#path-1"></use>
            </mask>
            <use id="Combined-Shape" fill="#789CA8" xlink:href="#path-1"></use>
        </g>
    </g>
</svg>