<?xml version="1.0" encoding="utf-8"?>
<svg xmlns="http://www.w3.org/2000/svg" xmlns:xlink="http://www.w3.org/1999/xlink" width="24px" height="24px" viewBox="0 0 24 24" version="1.1">
    
    <title>icon/ic-control</title>
    <desc>Created with Sketch.</desc>
    <defs>
        <path d="M3.48148148,6 C4.98031481,6 6.22103704,4.87971429 6.42888889,3.42857143 L23.0740741,3.42857143 C23.3096111,3.42857143 23.5,3.237 23.5,3 C23.5,2.763 23.3096111,2.57142857 23.0740741,2.57142857 L6.42888889,2.57142857 C6.22103704,1.12028571 4.98031481,0 3.48148148,0 C1.83740741,0 0.5,1.34614286 0.5,3 C0.5,4.65385714 1.83740741,6 3.48148148,6 Z M3.48148148,0.857142857 C4.65575926,0.857142857 5.61111111,1.81842857 5.61111111,3 C5.61111111,4.18157143 4.65575926,5.14285714 3.48148148,5.14285714 C2.3072037,5.14285714 1.35185185,4.18157143 1.35185185,3 C1.35185185,1.81842857 2.3072037,0.857142857 3.48148148,0.857142857 Z M20.5185185,18 C22.1621667,18 23.5,19.3461429 23.5,21 C23.5,22.6538571 22.1621667,24 20.5185185,24 C19.0196852,24 17.778963,22.8797143 17.5711111,21.4285714 L0.925925926,21.4285714 C0.690814815,21.4285714 0.5,21.237 0.5,21 C0.5,20.763 0.690814815,20.5714286 0.925925926,20.5714286 L17.5711111,20.5714286 C17.778963,19.1202857 19.0196852,18 20.5185185,18 Z M20.5185185,23.1428571 C21.6927963,23.1428571 22.6481481,22.1815714 22.6481481,21 C22.6481481,19.8184286 21.6927963,18.8571429 20.5185185,18.8571429 C19.3442407,18.8571429 18.3888889,19.8184286 18.3888889,21 C18.3888889,22.1815714 19.3442407,23.1428571 20.5185185,23.1428571 Z M23.0740741,11.5714286 C23.3096111,11.5714286 23.5,11.763 23.5,12 C23.5,12.237 23.3096111,12.4285714 23.0740741,12.4285714 L15.110963,12.4285714 C14.8652037,13.8857143 13.6053148,15 12.0881667,15 C10.5710185,15 9.3107037,13.8857143 9.06494444,12.4285714 L0.925925926,12.4285714 C0.690814815,12.4285714 0.5,12.237 0.5,12 C0.5,11.763 0.690814815,11.5714286 0.925925926,11.5714286 L9.03811111,11.5714286 C9.20677778,10.0281429 10.5096852,8.82257143 12.0881667,8.82257143 C13.6666481,8.82257143 14.9695556,10.0277143 15.1382222,11.5714286 L23.0740741,11.5714286 Z M12.0881667,14.1428571 C13.311,14.1428571 14.305963,13.1417143 14.305963,11.9112857 C14.305963,10.6808571 13.311,9.67971429 12.0881667,9.67971429 C10.8653333,9.67971429 9.87037037,10.6808571 9.87037037,11.9112857 C9.87037037,13.1417143 10.8653333,14.1428571 12.0881667,14.1428571 Z" id="path-1"/>
    </defs>
    <g id="icon/ic-control" stroke="none" stroke-width="1" fill="none" fill-rule="evenodd">
        <g id="-g-ic-control">
            <rect id="bound" x="0" y="0" width="24" height="24"/>
            <mask id="mask-2" fill="white">
                <use xlink:href="#path-1"/>
            </mask>
            <use id="Combined-Shape" fill="#789CA8" fill-rule="nonzero" xlink:href="#path-1"/>
        </g>
    </g>
</svg>
