<?xml version="1.0" encoding="UTF-8"?>
<svg width="24px" height="24px" viewBox="0 0 24 24" version="1.1" xmlns="http://www.w3.org/2000/svg" xmlns:xlink="http://www.w3.org/1999/xlink">
    <!-- Generator: Sketch 52.3 (67297) - http://www.bohemiancoding.com/sketch -->
    <title>_/Icon/List Star</title>
    <desc>Created with Sketch.</desc>
    <g id="_/Icon/List-Star" stroke="none" stroke-width="1" fill="none" fill-rule="evenodd">
        <g id="-g-ic-box-list-star">
            <rect id="bound" x="0" y="0" width="24" height="24"></rect>
            <g id="list-1" transform="translate(1.000000, 1.000000)" fill="#789CA8">
                <path d="M8.59063333,6.23333333 C8.38823333,6.23333333 8.22396667,6.06943333 8.22396667,5.86666667 C8.22396667,5.6639 8.38823333,5.5 8.59063333,5.5 L17.2333333,5.5 C17.4357333,5.5 17.6,5.6639 17.6,5.86666667 C17.6,6.06943333 17.4357333,6.23333333 17.2333333,6.23333333 L8.59063333,6.23333333 Z M8.59063333,11.7333333 C8.38823333,11.7333333 8.22396667,11.5694333 8.22396667,11.3666667 C8.22396667,11.1639 8.38823333,11 8.59063333,11 L17.2333333,11 C17.4357333,11 17.6,11.1639 17.6,11.3666667 C17.6,11.5694333 17.4357333,11.7333333 17.2333333,11.7333333 L8.59063333,11.7333333 Z M8.59063333,17.2333333 C8.38823333,17.2333333 8.22396667,17.0694333 8.22396667,16.8666667 C8.22396667,16.6639 8.38823333,16.5 8.59063333,16.5 L17.2333333,16.5 C17.4357333,16.5 17.6,16.6639 17.6,16.8666667 C17.6,17.0694333 17.4357333,17.2333333 17.2333333,17.2333333 L8.59063333,17.2333333 Z M21.6333333,0 C21.8357333,0 22,0.1639 22,0.366666667 L22,21.6333333 C22,21.8361 21.8357333,22 21.6333333,22 L0.366666667,22 C0.164266667,22 0,21.8361 0,21.6333333 L0,0.366666667 C0,0.1639 0.164266667,0 0.366666667,0 L21.6333333,0 Z M21.2666667,21.2666667 L21.2666667,0.733333333 L0.733333333,0.733333333 L0.733333333,21.2666667 L21.2666667,21.2666667 Z M4.5837,6.7738 L4.75383333,5.78233333 L4.03333333,5.0798 L5.02883333,4.93533333 L5.47396667,4.03333333 L5.9191,4.93533333 L6.9146,5.0798 L6.19446667,5.78233333 L6.36423333,6.7738 L5.47396667,6.30556667 L4.5837,6.7738 Z M4.5837,12.3042333 L4.75383333,11.3127667 L4.03333333,10.6106 L5.02883333,10.4657667 L5.47396667,9.56376667 L5.9191,10.4657667 L6.9146,10.6106 L6.19446667,11.3127667 L6.36423333,12.3042333 L5.47396667,11.836 L4.5837,12.3042333 Z M4.5837,17.9666667 L4.75383333,16.9752 L4.03333333,16.2730333 L5.02883333,16.1282 L5.47396667,15.2262 L5.9191,16.1282 L6.9146,16.2730333 L6.19446667,16.9752 L6.36423333,17.9666667 L5.47396667,17.4984333 L4.5837,17.9666667 Z" id="Combined-Shape"></path>
            </g>
        </g>
    </g>
</svg>