<svg width="46" height="46" viewBox="0 0 46 46" fill="none" xmlns="http://www.w3.org/2000/svg">
<path fill-rule="evenodd" clip-rule="evenodd" d="M23.0001 42.167C33.5856 42.167 42.1668 33.5858 42.1668 23.0003C42.1668 12.4149 33.5856 3.83367 23.0001 3.83367C12.4146 3.83367 3.83343 12.4149 3.83343 23.0003C3.83343 33.5858 12.4146 42.167 23.0001 42.167ZM23.0001 44.0835C11.3561 44.0835 1.91675 34.6442 1.91675 23.0002C1.91675 11.3562 11.3561 1.91684 23.0001 1.91684C34.6441 1.91684 44.0834 11.3562 44.0834 23.0002C44.0834 34.6442 34.6441 44.0835 23.0001 44.0835Z" fill="#1E5A6E"/>
<path fill-rule="evenodd" clip-rule="evenodd" d="M12.4583 23C12.4583 22.4707 12.8873 22.0417 13.4166 22.0417H34.4999C35.0292 22.0417 35.4583 22.4707 35.4583 23C35.4583 23.5293 35.0292 23.9583 34.4999 23.9583H13.4166C12.8873 23.9583 12.4583 23.5293 12.4583 23Z" fill="#1E5A6E"/>
</svg>
