<?xml version="1.0" encoding="UTF-8"?>
<svg width="24px" height="24px" viewBox="0 0 24 24" version="1.1" xmlns="http://www.w3.org/2000/svg" xmlns:xlink="http://www.w3.org/1999/xlink">
    <!-- Generator: Sketch 49.2 (51160) - http://www.bohemiancoding.com/sketch -->
    <title>icon/ic-view</title>
    <desc>Created with Sketch.</desc>
    <defs>
        <path d="M20.7004611,3.68115771 C15.8806777,-1.22705257 8.03905339,-1.22705257 3.21926994,3.68115771 L0,6.95907761 L3.29913346,10.3187391 C5.70882249,12.7726378 8.87417442,14 12.0399318,14 C15.2056891,14 18.3706356,12.7730506 20.7807301,10.3187391 L24,7.04040635 L20.7004611,3.68115771 Z M20.2070911,9.73498861 C15.7035185,14.3207738 8.3759396,14.3207738 3.87236702,9.73498861 L1.14646712,6.95907761 L3.79250351,4.26449534 C8.29607608,-0.321289818 15.623655,-0.321289818 20.1272276,4.26449534 L22.8531275,7.04040635 L20.2070911,9.73498861 Z M12,2 C9.24307692,2 7,4.24307692 7,7 C7,9.75692308 9.24307692,12 12,12 C14.7569231,12 17,9.75692308 17,7 C17,4.24307692 14.7573077,2 12,2 Z M12,11.2307692 C9.66730769,11.2307692 7.76923077,9.33269231 7.76923077,7 C7.76923077,4.66730769 9.66730769,2.76923077 12,2.76923077 C14.3326923,2.76923077 16.2307692,4.66730769 16.2307692,7 C16.2307692,9.33269231 14.3330769,11.2307692 12,11.2307692 Z M11.625,4 C10.1775,4 9,5.1775 9,6.625 C9,6.832 9.168,7 9.375,7 C9.582,7 9.75,6.832 9.75,6.625 C9.75,5.591125 10.591125,4.75 11.625,4.75 C11.832,4.75 12,4.582 12,4.375 C12,4.168 11.832375,4 11.625,4 Z" id="path-1"></path>
    </defs>
    <g id="icon/ic-view" stroke="none" stroke-width="1" fill="none" fill-rule="evenodd">
        <g id="-g-ic-view" transform="translate(0.000000, 5.000000)">
            <rect id="bound" x="0" y="0" width="24" height="24"></rect>
            <mask id="mask-2" fill="white">
                <use xlink:href="#path-1"></use>
            </mask>
            <use id="Combined-Shape" fill="#789CA8" fill-rule="nonzero" xlink:href="#path-1"></use>
        </g>
    </g>
</svg>