<?xml version="1.0" encoding="UTF-8"?>
<svg width="24px" height="24px" viewBox="0 0 24 24" version="1.1" xmlns="http://www.w3.org/2000/svg" xmlns:xlink="http://www.w3.org/1999/xlink">
    <!-- Generator: Sketch 52.5 (67469) - http://www.bohemiancoding.com/sketch -->
    <title>Assets/Icon/Action/Box Check Primary</title>
    <desc>Created with Sketch.</desc>
    <g id="Assets/Icon/Action/Box-Check-Primary" stroke="none" stroke-width="1" fill="none" fill-rule="evenodd">
        <g id="-g-ic-box-check-primary">
            <rect id="Bound" x="0" y="0" width="24" height="24"></rect>
            <path d="M2,1 L22,1 C22.5522847,1 23,1.44771525 23,2 L23,22 C23,22.5522847 22.5522847,23 22,23 L2,23 C1.44771525,23 1,22.5522847 1,22 L1,2 C1,1.44771525 1.44771525,1 2,1 Z M20.4781431,6.10395382 C20.339538,5.96534873 20.1155011,5.96534873 19.9768961,6.10395382 L9.23836871,16.8424812 L4.6052009,12.2093134 C4.4665958,12.0707083 4.24255892,12.0707083 4.10395382,12.2093134 C3.96534873,12.3479185 3.96534873,12.5719553 4.10395382,12.7105604 L8.98774517,17.5943518 C9.05687047,17.6634771 9.14761959,17.698217 9.23836871,17.698217 C9.32911782,17.698217 9.41986694,17.6634771 9.48899224,17.5943518 L20.4781431,6.6052009 C20.6167482,6.4665958 20.6167482,6.24255892 20.4781431,6.10395382 Z" id="Color" fill="#1E5A6E"></path>
        </g>
    </g>
</svg>