<?xml version="1.0" encoding="UTF-8"?>
<svg width="24px" height="24px" viewBox="0 0 24 24" version="1.1" xmlns="http://www.w3.org/2000/svg" xmlns:xlink="http://www.w3.org/1999/xlink">
    <!-- Generator: Sketch 52.5 (67469) - http://www.bohemiancoding.com/sketch -->
    <title>Assets/Icon/Action/Box Trash</title>
    <desc>Created with Sketch.</desc>
    <g id="Assets/Icon/Action/Box-Trash" stroke="none" stroke-width="1" fill="none" fill-rule="evenodd">
        <g id="-g-ic-box-trash">
            <rect id="Bound" x="0" y="0" width="24" height="24"></rect>
            <path d="M2,1 L22,1 C22.5522847,1 23,1.44771525 23,2 L23,22 C23,22.5522847 22.5522847,23 22,23 L2,23 C1.44771525,23 1,22.5522847 1,22 L1,2 C1,1.44771525 1.44771525,1 2,1 Z M12.2881356,17.2372881 C12.4097627,17.2372881 12.5084746,17.1387966 12.5084746,17.0169492 L12.5084746,9.74576271 C12.5084746,9.62391525 12.4097627,9.52542373 12.2881356,9.52542373 C12.1665085,9.52542373 12.0677966,9.62391525 12.0677966,9.74576271 L12.0677966,17.0169492 C12.0677966,17.1387966 12.1665085,17.2372881 12.2881356,17.2372881 Z M10.0847458,17.2372881 C10.2063729,17.2372881 10.3050847,17.1387966 10.3050847,17.0169492 L10.3050847,9.74576271 C10.3050847,9.62391525 10.2063729,9.52542373 10.0847458,9.52542373 C9.96311864,9.52542373 9.86440678,9.62391525 9.86440678,9.74576271 L9.86440678,17.0169492 C9.86440678,17.1387966 9.96311864,17.2372881 10.0847458,17.2372881 Z M14.4915254,17.2372881 C14.6131525,17.2372881 14.7118644,17.1387966 14.7118644,17.0169492 L14.7118644,9.74576271 C14.7118644,9.62391525 14.6131525,9.52542373 14.4915254,9.52542373 C14.3698983,9.52542373 14.2711864,9.62391525 14.2711864,9.74576271 L14.2711864,17.0169492 C14.2711864,17.1387966 14.3698983,17.2372881 14.4915254,17.2372881 Z M17.3559322,7.3220339 L14.2614915,7.3220339 C14.2372542,7.04661017 14.1524237,6.58213559 13.8620169,6.28401695 C13.6782542,6.09562712 13.4451356,6 13.1692712,6 L10.9661017,6 C10.6902373,6 10.4571186,6.09562712 10.2733559,6.28401695 C9.98294915,6.58213559 9.89811864,7.04661017 9.87388136,7.3220339 L7.22033898,7.3220339 C7.09871186,7.3220339 7,7.42052542 7,7.54237288 C7,7.66422034 7.09871186,7.76271186 7.22033898,7.76271186 L7.67005085,7.76271186 L8.092,17.9029322 C8.10015254,18.2823559 8.33635593,19 9.17342373,19 L15.4028475,19 C16.2399153,19 16.4761186,18.2823559 16.4840508,17.9075593 L16.9062203,7.76271186 L17.3559322,7.76271186 C17.4775593,7.76271186 17.5762712,7.66422034 17.5762712,7.54237288 C17.5762712,7.42052542 17.4775593,7.3220339 17.3559322,7.3220339 Z M10.5897627,6.59072881 C10.6884746,6.48981356 10.8116441,6.44067797 10.9661017,6.44067797 L13.1692712,6.44067797 C13.3237288,6.44067797 13.4468983,6.48981356 13.5456102,6.59072881 C13.7229831,6.7720678 13.7941525,7.09111864 13.8188305,7.3220339 L10.3167627,7.3220339 C10.3414407,7.09111864 10.4126102,6.7720678 10.5897627,6.59072881 Z M16.0435932,17.893678 C16.0422712,17.9617627 16.0118644,18.559322 15.4028475,18.559322 L9.17342373,18.559322 C8.57101695,18.559322 8.53488136,17.960661 8.53245763,17.8890508 L8.11094915,7.76271186 L16.4651017,7.76271186 L16.0435932,17.893678 Z" id="Combined-Shape" fill="#789CA8"></path>
        </g>
    </g>
</svg>