<?xml version="1.0" encoding="UTF-8"?>
<svg width="24px" height="24px" viewBox="0 0 24 24" version="1.1" xmlns="http://www.w3.org/2000/svg" xmlns:xlink="http://www.w3.org/1999/xlink">
    <!-- Generator: Sketch 52.5 (67469) - http://www.bohemiancoding.com/sketch -->
    <title>Assets/Icon/Non-Action/Box Cancel</title>
    <desc>Created with Sketch.</desc>
    <g id="Assets/Icon/Non-Action/Box-Cancel" stroke="none" stroke-width="1" fill="none" fill-rule="evenodd">
        <g id="-g-ic-box-cancel">
            <rect id="Bound" x="0" y="0" width="24" height="24"></rect>
            <path d="M2,1 L22,1 C22.5522847,1 23,1.44771525 23,2 L23,22 C23,22.5522847 22.5522847,23 22,23 L2,23 C1.44771525,23 1,22.5522847 1,22 L1,2 C1,1.44771525 1.44771525,1 2,1 Z M12.7071068,12 L19.7781746,4.92893219 L19.0710678,4.22182541 L12,11.2928932 L4.92893219,4.22182541 L4.22182541,4.92893219 L11.2928932,12 L4.22182541,19.0710678 L4.92893219,19.7781746 L12,12.7071068 L19.0710678,19.7781746 L19.7781746,19.0710678 L12.7071068,12 Z" id="Combined-Shape" fill="#789CA8"></path>
        </g>
    </g>
</svg>