<?xml version="1.0" encoding="UTF-8"?>
<svg width="24px" height="24px" viewBox="0 0 24 24" version="1.1" xmlns="http://www.w3.org/2000/svg" xmlns:xlink="http://www.w3.org/1999/xlink">
    <!-- Generator: Sketch 52.5 (67469) - http://www.bohemiancoding.com/sketch -->
    <title>Assets/Icon/Action/Box Edit</title>
    <desc>Created with Sketch.</desc>
    <g id="Assets/Icon/Action/Box-Edit" stroke="none" stroke-width="1" fill="none" fill-rule="evenodd">
        <g id="-g-ic-box-edit">
            <rect id="Bound" x="0" y="0" width="24" height="24"></rect>
            <path d="M2,1 L22,1 C22.5522847,1 23,1.44771525 23,2 L23,22 C23,22.5522847 22.5522847,23 22,23 L2,23 C1.44771525,23 1,22.5522847 1,22 L1,2 C1,1.44771525 1.44771525,1 2,1 Z M6.50588252,16.2995082 L7.25977477,14.7917237 L8.87497293,16.4069218 L7.35991776,17.1585908 L7.18776476,16.4699788 L6.50588252,16.2995082 Z M6.27682109,16.757631 L6.7754542,16.8822893 L6.9014009,17.3860761 L5.6528831,18.005507 L6.27682109,16.757631 Z M16.9022496,8.49871468 L16.4170934,8.98387097 L14.6738726,7.24065016 L15.1590288,6.75549388 L16.9022496,8.49871468 Z M17.255803,8.14516129 L15.5125822,6.40194049 L16.2074159,5.70710678 L17.9506367,7.45032758 L17.255803,8.14516129 Z M16.06354,9.33742436 L9.2880611,16.1129032 L7.54484029,14.3696824 L14.3203192,7.59420356 L16.06354,9.33742436 Z M6.9676801,14.257879 L5,18.1932392 L5.46450429,18.6577435 L9.39986449,16.6900634 L18.4809668,7.62710428 L18.6577435,7.45032758 L16.2074159,5 L7.01451021,14.1929057 L6.9676801,14.257879 Z M5.49954499,18.0815831 L5.56364737,18.0497798 L5.60838026,18.0945127 L5.57650906,18.1582551 L5.51024207,18.1475015 L5.49954499,18.0815831 Z" id="Combined-Shape" fill="#1E5A6E"></path>
        </g>
    </g>
</svg>