<?xml version="1.0" encoding="utf-8"?>
<svg xmlns="http://www.w3.org/2000/svg" xmlns:xlink="http://www.w3.org/1999/xlink" width="24px" height="24px" viewBox="0 0 24 24" version="1.1">
    
    <title>_/Icon/Circle Tag</title>
    <desc>Created with Sketch.</desc>
    <g id="_/Icon/Circle-Tag" stroke="none" stroke-width="1" fill="none" fill-rule="evenodd">
        <g id="-g-ic-circle-tag">
            <rect id="bound" x="0" y="0" width="24" height="24"/>
            <path d="M12,22 C17.5228475,22 22,17.5228475 22,12 C22,6.4771525 17.5228475,2 12,2 C6.4771525,2 2,6.4771525 2,12 C2,17.5228475 6.4771525,22 12,22 Z M12,23 C5.92486775,23 1,18.0751322 1,12 C1,5.92486775 5.92486775,1 12,1 C18.0751322,1 23,5.92486775 23,12 C23,18.0751322 18.0751322,23 12,23 Z M17.4709677,12.8842105 C17.4709677,13.0578947 17.4107527,13.2157895 17.2903226,13.3263158 L13.0903226,17.6684211 C12.9698925,17.7947368 12.8193548,17.8578947 12.6688172,17.8578947 C12.5182796,17.8578947 12.3677419,17.7947368 12.2473118,17.6684211 L6.6172043,11.8736842 C6.51182796,11.7631579 6.4516129,11.6210526 6.43655914,11.4631579 L6.15053763,6.83684211 C6.13548387,6.64736842 6.21075269,6.47368421 6.3311828,6.34736842 C6.4516129,6.22105263 6.6172043,6.14210526 6.79784946,6.15789474 L11.283871,6.45789474 C11.4344086,6.45789474 11.5698925,6.52105263 11.6752688,6.63157895 L17.2903226,12.4421053 C17.4107527,12.5526316 17.4709677,12.7105263 17.4709677,12.8842105 Z M12.6688172,16.3263158 L16.0107527,12.8842105 L10.9827957,7.70526316 L7.4,7.46842105 L7.64086022,11.1315789 L12.6688172,16.3263158 Z M10.0645161,8.87368421 C10.2301075,9.04736842 10.3354839,9.3 10.3354839,9.53684211 C10.3354839,9.78947368 10.2451613,10.0263158 10.0645161,10.2 C9.89892473,10.3736842 9.65806452,10.4842105 9.4172043,10.4842105 C9.17634409,10.4842105 8.95053763,10.3894737 8.76989247,10.2 C8.60430108,10.0263158 8.49892473,9.77368421 8.49892473,9.53684211 C8.49892473,9.28421053 8.58924731,9.04736842 8.76989247,8.87368421 C8.93548387,8.7 9.17634409,8.58947368 9.4172043,8.58947368 C9.65806452,8.58947368 9.89892473,8.7 10.0645161,8.87368421 Z M20,12.8842105 C20,13.0263158 19.9397849,13.1684211 19.8494624,13.2789474 L15.6494624,17.6052632 C15.544086,17.7157895 15.4086022,17.7631579 15.2731183,17.7631579 C15.1376344,17.7631579 15.0021505,17.7157895 14.8967742,17.6052632 C14.6860215,17.3842105 14.6860215,17.0368421 14.8967742,16.8315789 L18.7204301,12.9 L13.4666667,7.48421053 C13.255914,7.26315789 13.255914,6.91578947 13.4666667,6.71052632 C13.6774194,6.48947368 14.0086022,6.48947368 14.2193548,6.71052632 L19.8494624,12.4894737 C19.9397849,12.6 20,12.7421053 20,12.8842105 Z" id="Combined-Shape" fill="#789CA8" fill-rule="nonzero"/>
        </g>
    </g>
</svg>
