<svg width="22" height="22" viewBox="0 0 22 22" fill="none" xmlns="http://www.w3.org/2000/svg">
<path d="M11 21C16.5228 21 21 16.5228 21 11C21 5.47715 16.5228 1 11 1C5.47715 1 1 5.47715 1 11C1 16.5228 5.47715 21 11 21ZM11 22C4.92487 22 0 17.0751 0 11C0 4.92487 4.92487 0 11 0C17.0751 0 22 4.92487 22 11C22 17.0751 17.0751 22 11 22Z" fill="black"/>
<path d="M14.3328 9.37122L13.5546 10.1494L11.8506 8.44535L12.6288 7.66715L14.3328 9.37122ZM6.62057 12.8972L13.5177 6L16 8.48227L9.10284 15.3794L6 16L6.62057 12.8972ZM7.63439 13.4397L7.40292 14.5971L8.56026 14.3656L14.4436 8.48227L13.5177 7.5564L7.63439 13.4397Z" fill="black"/>
</svg>
