<svg width="22" height="22" viewBox="0 0 22 22" fill="none" xmlns="http://www.w3.org/2000/svg">
<path fill-rule="evenodd" clip-rule="evenodd" d="M19.5418 2.23729C19.7476 2.23729 19.9147 2.40397 19.9147 2.61017C19.9147 2.81637 19.7476 2.98305 19.5418 2.98305H2.38924C2.18341 2.98305 2.01636 2.81637 2.01636 2.61017C2.01636 2.40397 2.18341 2.23729 2.38924 2.23729H6.87985C6.92087 1.77119 7.06442 0.985153 7.55588 0.480644C7.86687 0.161831 8.26137 0 8.72822 0H12.4567C12.9235 0 13.318 0.161831 13.629 0.480644C14.1205 0.985153 14.264 1.77119 14.305 2.23729H19.5418ZM8.09134 0.999695C7.79154 1.30658 7.6711 1.84651 7.62934 2.23729H13.5559C13.5142 1.84651 13.3937 1.30658 13.0935 0.999695C12.9265 0.828915 12.7181 0.745763 12.4567 0.745763H8.72822C8.46683 0.745763 8.25839 0.828915 8.09134 0.999695ZM3.86436 20.1434L3.18124 3.72881H18.7498L18.0663 20.1513C18.0529 20.7855 17.6531 22 16.2366 22H5.69446C4.27788 22 3.87815 20.7855 3.86436 20.1434ZM17.9723 4.47458H3.9587L4.60975 20.1199C4.61385 20.2411 4.675 21.2542 5.69446 21.2542H16.2366C17.2672 21.2542 17.3187 20.243 17.3209 20.1278L17.9723 4.47458ZM6.49093 20.1356C6.2851 20.1356 6.11805 19.9689 6.11805 19.7627C6.11805 19.5565 6.2851 19.3898 6.49093 19.3898H15.4401C15.6459 19.3898 15.813 19.5565 15.813 19.7627C15.813 19.9689 15.6459 20.1356 15.4401 20.1356H6.49093ZM6.49093 18.2712C6.2851 18.2712 6.11805 18.1045 6.11805 17.8983C6.11805 17.6921 6.2851 17.5254 6.49093 17.5254H15.4401C15.6459 17.5254 15.813 17.6921 15.813 17.8983C15.813 18.1045 15.6459 18.2712 15.4401 18.2712H6.49093ZM6.49093 16.4068C6.2851 16.4068 6.11805 16.2401 6.11805 16.0339C6.11805 15.8277 6.2851 15.661 6.49093 15.661H15.4401C15.6459 15.661 15.813 15.8277 15.813 16.0339C15.813 16.2401 15.6459 16.4068 15.4401 16.4068H6.49093Z" fill="black"/>
</svg>
