<svg width="40" height="40" viewBox="0 0 40 40" fill="none" xmlns="http://www.w3.org/2000/svg">
<path d="M19.5072 5C18.1104 5 16.9021 5.72895 16.1849 6.9183L2.55711 30.0533C1.83986 31.281 1.80225 32.7768 2.51951 34.0045C3.19902 35.2322 4.44508 36 5.84185 36H33.135C34.5317 36 35.8154 35.2706 36.4949 34.0045C37.1744 32.7768 37.1746 31.281 36.4573 30.0533L22.8296 6.9183C22.1123 5.72895 20.904 5 19.5072 5ZM19.5072 7.30196C20.0735 7.30196 20.5641 7.57037 20.8661 8.10749L34.5322 31.2425C34.8342 31.7412 34.834 32.3554 34.5698 32.8925C34.2678 33.3913 33.7766 33.698 33.1726 33.698H5.84185C5.27559 33.698 4.74664 33.3913 4.44464 32.8925C4.14263 32.3937 4.18024 31.7412 4.48224 31.2425L18.1483 8.10749C18.4504 7.60874 18.941 7.30196 19.5072 7.30196ZM19.5072 14.8605C18.8655 14.8605 18.3747 15.3593 18.3747 16.0115V24.0683C18.3747 24.7206 18.8655 25.2193 19.5072 25.2193C20.149 25.2193 20.6397 24.7206 20.6397 24.0683V16.0115C20.6397 15.3593 20.149 14.8605 19.5072 14.8605ZM19.5072 26.8304C19.2069 26.8304 18.9188 26.9516 18.7064 27.1675C18.494 27.3833 18.3747 27.6761 18.3747 27.9814C18.3747 28.2866 18.494 28.5794 18.7064 28.7952C18.9188 29.0111 19.2069 29.1323 19.5072 29.1323C19.8076 29.1323 20.0956 29.0111 20.308 28.7952C20.5204 28.5794 20.6397 28.2866 20.6397 27.9814C20.6397 27.6761 20.5204 27.3833 20.308 27.1675C20.0956 26.9516 19.8076 26.8304 19.5072 26.8304Z" fill="black"/>
</svg>
