<svg width="26" height="26" viewBox="0 0 26 26" fill="none" xmlns="http://www.w3.org/2000/svg">
<path fill-rule="evenodd" clip-rule="evenodd" d="M13.0002 23.8336C18.9833 23.8336 23.8335 18.9833 23.8335 13.0003C23.8335 7.01717 18.9833 2.16692 13.0002 2.16692C7.0171 2.16692 2.16685 7.01717 2.16685 13.0003C2.16685 18.9833 7.0171 23.8336 13.0002 23.8336ZM13.0002 24.9168C6.41877 24.9168 1.0835 19.5816 1.0835 13.0002C1.0835 6.41877 6.41877 1.0835 13.0002 1.0835C19.5816 1.0835 24.9168 6.41877 24.9168 13.0002C24.9168 19.5816 19.5816 24.9168 13.0002 24.9168Z" fill="black"/>
<path fill-rule="evenodd" clip-rule="evenodd" d="M16.9001 15.5998V17.7665H19.9334V15.5998H16.9001ZM16.0334 14.2998H20.8001C21.0394 14.2998 21.2334 14.4938 21.2334 14.7331V18.6331C21.2334 18.8725 21.0394 19.0665 20.8001 19.0665H16.0334C15.7941 19.0665 15.6001 18.8725 15.6001 18.6331V14.7331C15.6001 14.4938 15.7941 14.2998 16.0334 14.2998Z" fill="black"/>
<path fill-rule="evenodd" clip-rule="evenodd" d="M6.5002 15.5998V17.7665H9.53353V15.5998H6.5002ZM5.63353 14.2998H10.4002C10.6395 14.2998 10.8335 14.4938 10.8335 14.7331V18.6331C10.8335 18.8725 10.6395 19.0665 10.4002 19.0665H5.63353C5.39421 19.0665 5.2002 18.8725 5.2002 18.6331V14.7331C5.2002 14.4938 5.39421 14.2998 5.63353 14.2998Z" fill="black"/>
<path fill-rule="evenodd" clip-rule="evenodd" d="M11.6999 5.6335V7.80016H14.7332V5.6335H11.6999ZM10.8332 4.3335H15.5999C15.8392 4.3335 16.0332 4.52751 16.0332 4.76683V8.66683C16.0332 8.90615 15.8392 9.10016 15.5999 9.10016H10.8332C10.5939 9.10016 10.3999 8.90615 10.3999 8.66683V4.76683C10.3999 4.52751 10.5939 4.3335 10.8332 4.3335Z" fill="black"/>
<path fill-rule="evenodd" clip-rule="evenodd" d="M12.5667 12.1334L12.5667 8.2334L13.8667 8.2334L13.8667 12.1334L12.5667 12.1334Z" fill="black"/>
<path fill-rule="evenodd" clip-rule="evenodd" d="M17.7669 15.1666L17.7669 11.2666L19.0669 11.2666L19.0669 15.1666L17.7669 15.1666Z" fill="black"/>
<path fill-rule="evenodd" clip-rule="evenodd" d="M7.3665 15.1666L7.3665 11.2666L8.6665 11.2666L8.6665 15.1666L7.3665 15.1666Z" fill="black"/>
<path fill-rule="evenodd" clip-rule="evenodd" d="M19.0615 12.4222L7.37838 12.3727L7.38379 11.0957L19.067 11.1452L19.0615 12.4222Z" fill="black"/>
</svg>
