<?xml version="1.0" encoding="UTF-8"?>
<svg width="24px" height="24px" viewBox="0 0 24 24" version="1.1" xmlns="http://www.w3.org/2000/svg" xmlns:xlink="http://www.w3.org/1999/xlink">
    <!-- Generator: Sketch 52.5 (67469) - http://www.bohemiancoding.com/sketch -->
    <title>Assets/Icon/Non-Action/Warning</title>
    <desc>Created with Sketch.</desc>
    <g id="Assets/Icon/Non-Action/Warning" stroke="none" stroke-width="1" fill="none" fill-rule="evenodd">
        <g id="-g-ic-warning">
            <rect id="Bound" x="0" y="0" width="24" height="24"></rect>
            <path d="M12.0000178,19.4167568 C11.5705716,19.4167568 11.2224368,19.0469184 11.2224368,18.5906995 C11.2224368,18.1344807 11.5705716,17.7646422 12.0000178,17.7646422 C12.4294639,17.7646422 12.7775988,18.1344807 12.7775988,18.5906995 C12.7775988,19.0469184 12.4294639,19.4167568 12.0000178,19.4167568 Z M11.3086049,9.38909509 C11.3086049,8.98338964 11.617776,8.65457783 12.0000178,8.65457783 C12.3822595,8.65457783 12.6914306,8.9837558 12.6914306,9.38909509 L12.6914306,15.7265949 C12.6914306,16.1323003 12.3822595,16.460746 12.0000178,16.460746 C11.617776,16.460746 11.3086049,16.1319342 11.3086049,15.7265949 L11.3086049,9.38909509 Z M22.9192402,21.9198276 C23.0329821,22.1475792 23.0260887,22.4221993 22.9016619,22.6429939 C22.7762012,22.8648869 22.5514747,23 22.3084807,23 L1.69155483,23 C1.44856077,23 1.22348968,22.8645207 1.09871826,22.6429939 C0.973602169,22.4221993 0.967053393,22.1475792 1.08113997,21.9198276 L11.3899476,1.3592031 C11.6298396,0.880265633 12.3698513,0.880265633 12.610088,1.3592031 L22.9192402,21.9198276 Z M2.84310541,21.5309655 L21.1572748,21.5309655 L12.0000178,3.2665313 L2.84310541,21.5309655 Z" id="Color" fill="#F2B01E"></path>
        </g>
    </g>
</svg>